<?xml version="1.0" standalone="no"?><svg xmlns="http://www.w3.org/2000/svg" viewBox="0 0 1440 320"><path fill="#176b87" fill-opacity="1" d="M0,160L30,165.3C60,171,120,181,180,165.3C240,149,300,107,360,122.7C420,139,480,213,540,213.3C600,213,660,139,720,117.3C780,96,840,128,900,154.7C960,181,1020,203,1080,208C1140,213,1200,203,1260,197.3C1320,192,1380,192,1410,192L1440,192L1440,0L1410,0C1380,0,1320,0,1260,0C1200,0,1140,0,1080,0C1020,0,960,0,900,0C840,0,780,0,720,0C660,0,600,0,540,0C480,0,420,0,360,0C300,0,240,0,180,0C120,0,60,0,30,0L0,0Z"></path></svg>